<svg width="28" height="28" viewBox="0 0 28 28" fill="none" xmlns="http://www.w3.org/2000/svg">
<path d="M23.8172 9.28392L23.5041 10.021C23.4551 10.141 23.3726 10.2435 23.2668 10.3157C23.1611 10.3878 23.0368 10.4263 22.9097 10.4263C22.7826 10.4263 22.6583 10.3878 22.5526 10.3157C22.4468 10.2435 22.3642 10.141 22.3153 10.021L22.0022 9.28392C21.4517 7.97999 20.4436 6.93454 19.1767 6.35383L18.2107 5.91237C18.0935 5.85721 17.9942 5.76882 17.9246 5.65768C17.855 5.54654 17.818 5.41732 17.818 5.28533C17.818 5.15334 17.855 5.02411 17.9246 4.91297C17.9942 4.80184 18.0935 4.71345 18.2107 4.65829L19.1232 4.24287C20.422 3.64563 21.4474 2.5615 21.9882 1.21381L22.3102 0.418131C22.3575 0.294877 22.44 0.189061 22.5469 0.114477C22.6539 0.0398923 22.7803 0 22.9097 0C23.0391 0 23.1655 0.0398923 23.2724 0.114477C23.3794 0.189061 23.4619 0.294877 23.5092 0.418131L23.8312 1.21251C24.3714 2.56045 25.3964 3.64504 26.6949 4.24287L27.6087 4.65959C27.7256 4.71491 27.8245 4.80329 27.8938 4.91428C27.9632 5.02527 28 5.15425 28 5.28598C28 5.41771 27.9632 5.54668 27.8938 5.65768C27.8245 5.76867 27.7256 5.85705 27.6087 5.91237L26.6414 6.35253C25.3748 6.93381 24.3671 7.97974 23.8172 9.28392ZM22.9097 13.024C23.7735 13.0247 24.6313 12.8754 25.4463 12.5825C25.4522 12.7301 25.4552 12.8773 25.4552 13.024C25.4552 15.7871 24.3825 18.4369 22.4729 20.3907C20.5634 22.3445 17.9736 23.4421 15.2731 23.4421V28C8.90932 25.3955 0 21.4887 0 13.024C0 10.261 1.07275 7.61108 2.98226 5.65731C4.89177 3.70354 7.48163 2.60593 10.1821 2.60593H15.2731C15.4174 2.60593 15.5612 2.60897 15.7046 2.61504C15.299 3.79349 15.1755 5.05427 15.3445 6.29164C15.5134 7.52901 15.9699 8.70687 16.6757 9.72645C17.3814 10.746 18.3158 11.5776 19.4005 12.1513C20.4852 12.7251 21.6886 13.0244 22.9097 13.024Z" fill="white"/>
</svg>
